<svg width="1222" height="632" viewBox="0 0 1222 632" fill="none" xmlns="http://www.w3.org/2000/svg">
<rect width="1222" height="632" fill="#9CA3AF"/>
<path d="M194.028 269.909H218.301L243.938 332.455H245.028L270.665 269.909H294.938V363H275.847V302.409H275.074L250.983 362.545H237.983L213.892 302.182H213.119V363H194.028V269.909ZM342.335 364.364C335.275 364.364 329.169 362.864 324.017 359.864C318.896 356.833 314.941 352.621 312.153 347.227C309.366 341.803 307.972 335.515 307.972 328.364C307.972 321.152 309.366 314.848 312.153 309.455C314.941 304.03 318.896 299.818 324.017 296.818C329.169 293.788 335.275 292.273 342.335 292.273C349.396 292.273 355.487 293.788 360.608 296.818C365.759 299.818 369.729 304.03 372.517 309.455C375.305 314.848 376.699 321.152 376.699 328.364C376.699 335.515 375.305 341.803 372.517 347.227C369.729 352.621 365.759 356.833 360.608 359.864C355.487 362.864 349.396 364.364 342.335 364.364ZM342.426 349.364C345.638 349.364 348.32 348.455 350.472 346.636C352.623 344.788 354.244 342.273 355.335 339.091C356.456 335.909 357.017 332.288 357.017 328.227C357.017 324.167 356.456 320.545 355.335 317.364C354.244 314.182 352.623 311.667 350.472 309.818C348.32 307.97 345.638 307.045 342.426 307.045C339.184 307.045 336.456 307.97 334.244 309.818C332.063 311.667 330.411 314.182 329.29 317.364C328.199 320.545 327.653 324.167 327.653 328.227C327.653 332.288 328.199 335.909 329.29 339.091C330.411 342.273 332.063 344.788 334.244 346.636C336.456 348.455 339.184 349.364 342.426 349.364ZM452.131 293.182L427.722 363H405.903L381.494 293.182H401.949L416.449 343.136H417.176L431.631 293.182H452.131ZM462.04 363V293.182H481.403V363H462.04ZM471.767 284.182C468.888 284.182 466.419 283.227 464.358 281.318C462.328 279.379 461.312 277.061 461.312 274.364C461.312 271.697 462.328 269.409 464.358 267.5C466.419 265.561 468.888 264.591 471.767 264.591C474.646 264.591 477.1 265.561 479.131 267.5C481.191 269.409 482.222 271.697 482.222 274.364C482.222 277.061 481.191 279.379 479.131 281.318C477.1 283.227 474.646 284.182 471.767 284.182ZM528.733 364.364C521.551 364.364 515.369 362.909 510.188 360C505.036 357.061 501.066 352.909 498.278 347.545C495.491 342.152 494.097 335.773 494.097 328.409C494.097 321.227 495.491 314.924 498.278 309.5C501.066 304.076 504.991 299.848 510.051 296.818C515.142 293.788 521.112 292.273 527.96 292.273C532.566 292.273 536.854 293.015 540.824 294.5C544.824 295.955 548.309 298.152 551.278 301.091C554.278 304.03 556.612 307.727 558.278 312.182C559.945 316.606 560.778 321.788 560.778 327.727V333.045H501.824V321.045H542.551C542.551 318.258 541.945 315.788 540.733 313.636C539.521 311.485 537.839 309.803 535.688 308.591C533.566 307.348 531.097 306.727 528.278 306.727C525.339 306.727 522.733 307.409 520.46 308.773C518.218 310.106 516.46 311.909 515.188 314.182C513.915 316.424 513.263 318.924 513.233 321.682V333.091C513.233 336.545 513.869 339.53 515.142 342.045C516.445 344.561 518.278 346.5 520.642 347.864C523.006 349.227 525.809 349.909 529.051 349.909C531.203 349.909 533.172 349.606 534.96 349C536.748 348.394 538.278 347.485 539.551 346.273C540.824 345.061 541.794 343.576 542.46 341.818L560.369 343C559.46 347.303 557.597 351.061 554.778 354.273C551.991 357.455 548.384 359.939 543.96 361.727C539.566 363.485 534.491 364.364 528.733 364.364Z" fill="black"/>
<path d="M573.778 363V269.909H635.415V286.136H593.46V308.318H631.324V324.545H593.46V363H573.778ZM647.165 363V293.182H665.938V305.364H666.665C667.938 301.03 670.074 297.758 673.074 295.545C676.074 293.303 679.528 292.182 683.438 292.182C684.407 292.182 685.453 292.242 686.574 292.364C687.695 292.485 688.68 292.652 689.528 292.864V310.045C688.619 309.773 687.362 309.53 685.756 309.318C684.15 309.106 682.68 309 681.347 309C678.498 309 675.953 309.621 673.71 310.864C671.498 312.076 669.741 313.773 668.438 315.955C667.165 318.136 666.528 320.652 666.528 323.5V363H647.165ZM699.54 363V293.182H718.903V363H699.54ZM709.267 284.182C706.388 284.182 703.919 283.227 701.858 281.318C699.828 279.379 698.812 277.061 698.812 274.364C698.812 271.697 699.828 269.409 701.858 267.5C703.919 265.561 706.388 264.591 709.267 264.591C712.146 264.591 714.6 265.561 716.631 267.5C718.691 269.409 719.722 271.697 719.722 274.364C719.722 277.061 718.691 279.379 716.631 281.318C714.6 283.227 712.146 284.182 709.267 284.182ZM766.233 364.364C759.051 364.364 752.869 362.909 747.688 360C742.536 357.061 738.566 352.909 735.778 347.545C732.991 342.152 731.597 335.773 731.597 328.409C731.597 321.227 732.991 314.924 735.778 309.5C738.566 304.076 742.491 299.848 747.551 296.818C752.642 293.788 758.612 292.273 765.46 292.273C770.066 292.273 774.354 293.015 778.324 294.5C782.324 295.955 785.809 298.152 788.778 301.091C791.778 304.03 794.112 307.727 795.778 312.182C797.445 316.606 798.278 321.788 798.278 327.727V333.045H739.324V321.045H780.051C780.051 318.258 779.445 315.788 778.233 313.636C777.021 311.485 775.339 309.803 773.188 308.591C771.066 307.348 768.597 306.727 765.778 306.727C762.839 306.727 760.233 307.409 757.96 308.773C755.718 310.106 753.96 311.909 752.688 314.182C751.415 316.424 750.763 318.924 750.733 321.682V333.091C750.733 336.545 751.369 339.53 752.642 342.045C753.945 344.561 755.778 346.5 758.142 347.864C760.506 349.227 763.309 349.909 766.551 349.909C768.703 349.909 770.672 349.606 772.46 349C774.248 348.394 775.778 347.485 777.051 346.273C778.324 345.061 779.294 343.576 779.96 341.818L797.869 343C796.96 347.303 795.097 351.061 792.278 354.273C789.491 357.455 785.884 359.939 781.46 361.727C777.066 363.485 771.991 364.364 766.233 364.364ZM830.278 322.636V363H810.915V293.182H829.369V305.5H830.188C831.733 301.439 834.324 298.227 837.96 295.864C841.597 293.47 846.006 292.273 851.188 292.273C856.036 292.273 860.263 293.333 863.869 295.455C867.475 297.576 870.278 300.606 872.278 304.545C874.278 308.455 875.278 313.121 875.278 318.545V363H855.915V322C855.945 317.727 854.854 314.394 852.642 312C850.43 309.576 847.384 308.364 843.506 308.364C840.9 308.364 838.597 308.924 836.597 310.045C834.627 311.167 833.081 312.803 831.96 314.955C830.869 317.076 830.309 319.636 830.278 322.636ZM916.267 364.136C910.964 364.136 906.161 362.773 901.858 360.045C897.585 357.288 894.191 353.242 891.676 347.909C889.191 342.545 887.949 335.97 887.949 328.182C887.949 320.182 889.237 313.53 891.812 308.227C894.388 302.894 897.813 298.909 902.085 296.273C906.388 293.606 911.1 292.273 916.222 292.273C920.131 292.273 923.388 292.939 925.994 294.273C928.631 295.576 930.752 297.212 932.358 299.182C933.994 301.121 935.237 303.03 936.085 304.909H936.676V269.909H955.994V363H936.903V351.818H936.085C935.176 353.758 933.888 355.682 932.222 357.591C930.585 359.47 928.449 361.03 925.812 362.273C923.206 363.515 920.025 364.136 916.267 364.136ZM922.403 348.727C925.525 348.727 928.161 347.879 930.312 346.182C932.494 344.455 934.161 342.045 935.312 338.955C936.494 335.864 937.085 332.242 937.085 328.091C937.085 323.939 936.509 320.333 935.358 317.273C934.206 314.212 932.54 311.848 930.358 310.182C928.176 308.515 925.525 307.682 922.403 307.682C919.222 307.682 916.54 308.545 914.358 310.273C912.176 312 910.525 314.394 909.403 317.455C908.282 320.515 907.722 324.061 907.722 328.091C907.722 332.152 908.282 335.742 909.403 338.864C910.555 341.955 912.206 344.379 914.358 346.136C916.54 347.864 919.222 348.727 922.403 348.727ZM1030.01 313.091L1012.28 314.182C1011.98 312.667 1011.32 311.303 1010.32 310.091C1009.32 308.848 1008.01 307.864 1006.37 307.136C1004.76 306.379 1002.84 306 1000.6 306C997.597 306 995.066 306.636 993.006 307.909C990.945 309.152 989.915 310.818 989.915 312.909C989.915 314.576 990.581 315.985 991.915 317.136C993.248 318.288 995.536 319.212 998.778 319.909L1011.41 322.455C1018.2 323.848 1023.26 326.091 1026.6 329.182C1029.93 332.273 1031.6 336.333 1031.6 341.364C1031.6 345.939 1030.25 349.955 1027.55 353.409C1024.88 356.864 1021.22 359.561 1016.55 361.5C1011.91 363.409 1006.57 364.364 1000.51 364.364C991.263 364.364 983.9 362.439 978.415 358.591C972.96 354.712 969.763 349.439 968.824 342.773L987.869 341.773C988.445 344.591 989.839 346.742 992.051 348.227C994.263 349.682 997.097 350.409 1000.55 350.409C1003.95 350.409 1006.67 349.758 1008.73 348.455C1010.82 347.121 1011.88 345.409 1011.91 343.318C1011.88 341.561 1011.14 340.121 1009.69 339C1008.23 337.848 1005.99 336.97 1002.96 336.364L990.869 333.955C984.051 332.591 978.975 330.227 975.642 326.864C972.339 323.5 970.688 319.212 970.688 314C970.688 309.515 971.9 305.652 974.324 302.409C976.778 299.167 980.218 296.667 984.642 294.909C989.097 293.152 994.309 292.273 1000.28 292.273C1009.1 292.273 1016.04 294.136 1021.1 297.864C1026.19 301.591 1029.16 306.667 1030.01 313.091Z" fill="#EF4444"/>
</svg>
