<svg width="250" height="370" viewBox="0 0 250 370" fill="none" xmlns="http://www.w3.org/2000/svg">
<mask id="mask0_1321_555" style="mask-type:alpha" maskUnits="userSpaceOnUse" x="0" y="0" width="250" height="370">
<rect width="250" height="370" fill="#E5E7EB"/>
</mask>
<g mask="url(#mask0_1321_555)">
<rect width="250" height="370" fill="#E5E7EB"/>
<path d="M27.2723 174.182H32.9612L38.9697 188.841H39.2254L45.2339 174.182H50.9229V196H46.4484V181.799H46.2673L40.621 195.893H37.5741L31.9278 181.746H31.7467V196H27.2723V174.182ZM62.0317 196.32C60.3769 196.32 58.9458 195.968 57.7384 195.265C56.5381 194.555 55.6112 193.567 54.9578 192.303C54.3044 191.032 53.9777 189.558 53.9777 187.882C53.9777 186.192 54.3044 184.714 54.9578 183.45C55.6112 182.179 56.5381 181.192 57.7384 180.489C58.9458 179.778 60.3769 179.423 62.0317 179.423C63.6865 179.423 65.1141 179.778 66.3144 180.489C67.5218 181.192 68.4521 182.179 69.1056 183.45C69.759 184.714 70.0857 186.192 70.0857 187.882C70.0857 189.558 69.759 191.032 69.1056 192.303C68.4521 193.567 67.5218 194.555 66.3144 195.265C65.1141 195.968 63.6865 196.32 62.0317 196.32ZM62.053 192.804C62.8058 192.804 63.4344 192.591 63.9387 192.165C64.4429 191.732 64.8229 191.142 65.0786 190.396C65.3414 189.651 65.4727 188.802 65.4727 187.85C65.4727 186.898 65.3414 186.05 65.0786 185.304C64.8229 184.558 64.4429 183.969 63.9387 183.536C63.4344 183.102 62.8058 182.886 62.053 182.886C61.2931 182.886 60.6539 183.102 60.1354 183.536C59.624 183.969 59.2369 184.558 58.9742 185.304C58.7185 186.05 58.5906 186.898 58.5906 187.85C58.5906 188.802 58.7185 189.651 58.9742 190.396C59.2369 191.142 59.624 191.732 60.1354 192.165C60.6539 192.591 61.2931 192.804 62.053 192.804ZM87.765 179.636L82.0441 196H76.9305L71.2096 179.636H76.0036L79.4021 191.344H79.5725L82.9603 179.636H87.765ZM90.0874 196V179.636H94.6258V196H90.0874ZM92.3673 177.527C91.6926 177.527 91.1137 177.303 90.6308 176.856C90.1549 176.401 89.917 175.858 89.917 175.226C89.917 174.601 90.1549 174.065 90.6308 173.617C91.1137 173.163 91.6926 172.935 92.3673 172.935C93.042 172.935 93.6173 173.163 94.0931 173.617C94.5761 174.065 94.8176 174.601 94.8176 175.226C94.8176 175.858 94.5761 176.401 94.0931 176.856C93.6173 177.303 93.042 177.527 92.3673 177.527ZM105.719 196.32C104.035 196.32 102.587 195.979 101.372 195.297C100.165 194.608 99.2343 193.635 98.5809 192.378C97.9275 191.114 97.6008 189.619 97.6008 187.893C97.6008 186.21 97.9275 184.732 98.5809 183.461C99.2343 182.19 100.154 181.199 101.34 180.489C102.533 179.778 103.932 179.423 105.538 179.423C106.617 179.423 107.622 179.597 108.552 179.945C109.49 180.286 110.307 180.801 111.003 181.49C111.706 182.179 112.253 183.045 112.643 184.089C113.034 185.126 113.229 186.341 113.229 187.733V188.979H99.4118V186.167H108.957C108.957 185.513 108.815 184.935 108.531 184.43C108.247 183.926 107.853 183.532 107.349 183.248C106.851 182.957 106.273 182.811 105.612 182.811C104.923 182.811 104.312 182.971 103.78 183.29C103.254 183.603 102.842 184.026 102.544 184.558C102.246 185.084 102.093 185.67 102.086 186.316V188.99C102.086 189.8 102.235 190.499 102.533 191.089C102.839 191.678 103.268 192.133 103.822 192.452C104.376 192.772 105.033 192.932 105.793 192.932C106.297 192.932 106.759 192.861 107.178 192.719C107.597 192.577 107.956 192.364 108.254 192.08C108.552 191.795 108.78 191.447 108.936 191.036L113.133 191.312C112.92 192.321 112.484 193.202 111.823 193.955C111.17 194.7 110.324 195.283 109.288 195.702C108.258 196.114 107.068 196.32 105.719 196.32Z" fill="#111827"/>
<path d="M116.276 196V174.182H130.722V177.985H120.889V183.184H129.763V186.987H120.889V196H116.276ZM133.476 196V179.636H137.876V182.491H138.046C138.345 181.476 138.845 180.709 139.549 180.19C140.252 179.665 141.061 179.402 141.978 179.402C142.205 179.402 142.45 179.416 142.713 179.445C142.975 179.473 143.206 179.512 143.405 179.562V183.589C143.192 183.525 142.897 183.468 142.521 183.418C142.144 183.369 141.8 183.344 141.487 183.344C140.82 183.344 140.223 183.489 139.698 183.781C139.179 184.065 138.767 184.462 138.462 184.974C138.164 185.485 138.014 186.075 138.014 186.742V196H133.476ZM145.752 196V179.636H150.29V196H145.752ZM148.031 177.527C147.357 177.527 146.778 177.303 146.295 176.856C145.819 176.401 145.581 175.858 145.581 175.226C145.581 174.601 145.819 174.065 146.295 173.617C146.778 173.163 147.357 172.935 148.031 172.935C148.706 172.935 149.281 173.163 149.757 173.617C150.24 174.065 150.482 174.601 150.482 175.226C150.482 175.858 150.24 176.401 149.757 176.856C149.281 177.303 148.706 177.527 148.031 177.527ZM161.383 196.32C159.699 196.32 158.251 195.979 157.036 195.297C155.829 194.608 154.898 193.635 154.245 192.378C153.592 191.114 153.265 189.619 153.265 187.893C153.265 186.21 153.592 184.732 154.245 183.461C154.898 182.19 155.818 181.199 157.004 180.489C158.197 179.778 159.597 179.423 161.202 179.423C162.281 179.423 163.286 179.597 164.217 179.945C165.154 180.286 165.971 180.801 166.667 181.49C167.37 182.179 167.917 183.045 168.307 184.089C168.698 185.126 168.893 186.341 168.893 187.733V188.979H155.076V186.167H164.621C164.621 185.513 164.479 184.935 164.195 184.43C163.911 183.926 163.517 183.532 163.013 183.248C162.516 182.957 161.937 182.811 161.276 182.811C160.587 182.811 159.976 182.971 159.444 183.29C158.918 183.603 158.506 184.026 158.208 184.558C157.91 185.084 157.757 185.67 157.75 186.316V188.99C157.75 189.8 157.899 190.499 158.197 191.089C158.503 191.678 158.932 192.133 159.486 192.452C160.04 192.772 160.697 192.932 161.457 192.932C161.962 192.932 162.423 192.861 162.842 192.719C163.261 192.577 163.62 192.364 163.918 192.08C164.217 191.795 164.444 191.447 164.6 191.036L168.797 191.312C168.584 192.321 168.148 193.202 167.487 193.955C166.834 194.7 165.989 195.283 164.952 195.702C163.922 196.114 162.732 196.32 161.383 196.32ZM176.393 186.54V196H171.855V179.636H176.18V182.523H176.372C176.734 181.572 177.342 180.819 178.194 180.265C179.046 179.704 180.079 179.423 181.294 179.423C182.43 179.423 183.421 179.672 184.266 180.169C185.111 180.666 185.768 181.376 186.237 182.3C186.706 183.216 186.94 184.31 186.94 185.581V196H182.402V186.391C182.409 185.389 182.153 184.608 181.635 184.047C181.116 183.479 180.403 183.195 179.494 183.195C178.883 183.195 178.343 183.326 177.874 183.589C177.413 183.852 177.05 184.235 176.788 184.739C176.532 185.237 176.4 185.837 176.393 186.54ZM196.547 196.266C195.304 196.266 194.178 195.947 193.17 195.308C192.168 194.661 191.373 193.713 190.783 192.463C190.201 191.206 189.91 189.665 189.91 187.839C189.91 185.964 190.212 184.406 190.815 183.163C191.419 181.913 192.222 180.979 193.223 180.361C194.232 179.736 195.336 179.423 196.536 179.423C197.453 179.423 198.216 179.58 198.827 179.892C199.445 180.197 199.942 180.581 200.318 181.043C200.702 181.497 200.993 181.945 201.192 182.385H201.33V174.182H205.858V196H201.384V193.379H201.192C200.979 193.834 200.677 194.285 200.286 194.732C199.903 195.173 199.402 195.538 198.784 195.83C198.173 196.121 197.428 196.266 196.547 196.266ZM197.985 192.655C198.717 192.655 199.335 192.456 199.839 192.058C200.35 191.653 200.741 191.089 201.011 190.364C201.288 189.64 201.426 188.791 201.426 187.818C201.426 186.845 201.291 186 201.021 185.283C200.752 184.565 200.361 184.011 199.85 183.621C199.338 183.23 198.717 183.035 197.985 183.035C197.239 183.035 196.611 183.237 196.1 183.642C195.588 184.047 195.201 184.608 194.938 185.325C194.676 186.043 194.544 186.874 194.544 187.818C194.544 188.77 194.676 189.612 194.938 190.343C195.208 191.067 195.595 191.636 196.1 192.048C196.611 192.452 197.239 192.655 197.985 192.655ZM223.204 184.303L219.05 184.558C218.979 184.203 218.826 183.884 218.592 183.599C218.357 183.308 218.048 183.077 217.665 182.907C217.288 182.729 216.837 182.641 216.312 182.641C215.609 182.641 215.016 182.79 214.533 183.088C214.05 183.379 213.808 183.77 213.808 184.26C213.808 184.651 213.964 184.981 214.277 185.251C214.589 185.521 215.126 185.737 215.886 185.901L218.847 186.497C220.438 186.824 221.624 187.349 222.405 188.074C223.187 188.798 223.577 189.75 223.577 190.929C223.577 192.001 223.261 192.942 222.629 193.752C222.004 194.562 221.145 195.194 220.051 195.648C218.964 196.096 217.711 196.32 216.29 196.32C214.124 196.32 212.398 195.869 211.113 194.967C209.834 194.058 209.085 192.822 208.865 191.259L213.329 191.025C213.464 191.685 213.79 192.19 214.309 192.538C214.827 192.879 215.491 193.049 216.301 193.049C217.097 193.049 217.736 192.896 218.219 192.591C218.709 192.278 218.957 191.877 218.964 191.387C218.957 190.975 218.783 190.638 218.442 190.375C218.101 190.105 217.576 189.899 216.866 189.757L214.032 189.192C212.434 188.873 211.244 188.319 210.463 187.531C209.689 186.742 209.302 185.737 209.302 184.516C209.302 183.464 209.586 182.559 210.154 181.799C210.729 181.039 211.535 180.453 212.572 180.041C213.616 179.629 214.838 179.423 216.237 179.423C218.304 179.423 219.93 179.86 221.116 180.734C222.31 181.607 223.006 182.797 223.204 184.303Z" fill="#EF4444"/>
</g>
</svg>
